<mxfile host="app.diagrams.net" modified="2024-04-07T12:20:29.442Z" agent="Mozilla/5.0 (Windows NT 10.0; Win64; x64) AppleWebKit/537.36 (KHTML, like Gecko) Chrome/123.0.0.0 Safari/537.36" etag="ZB0ZDkWH7Q9WivWj5IQf" version="24.2.2" type="google">
  <diagram id="C5RBs43oDa-KdzZeNtuy" name="Page-1">
    <mxGraphModel grid="1" page="1" gridSize="10" guides="1" tooltips="1" connect="1" arrows="1" fold="1" pageScale="1" pageWidth="827" pageHeight="1169" math="0" shadow="0">
      <root>
        <mxCell id="WIyWlLk6GJQsqaUBKTNV-0" />
        <mxCell id="WIyWlLk6GJQsqaUBKTNV-1" parent="WIyWlLk6GJQsqaUBKTNV-0" />
        <mxCell id="e1uM105p1l9Oeo9Ra2l5-50" value="" style="rounded=0;whiteSpace=wrap;html=1;" vertex="1" parent="WIyWlLk6GJQsqaUBKTNV-1">
          <mxGeometry x="-90" y="-70" width="960" height="360" as="geometry" />
        </mxCell>
        <mxCell id="e1uM105p1l9Oeo9Ra2l5-17" style="edgeStyle=orthogonalEdgeStyle;rounded=0;orthogonalLoop=1;jettySize=auto;html=1;" edge="1" parent="WIyWlLk6GJQsqaUBKTNV-1" source="WIyWlLk6GJQsqaUBKTNV-3">
          <mxGeometry relative="1" as="geometry">
            <mxPoint x="330" y="50" as="targetPoint" />
          </mxGeometry>
        </mxCell>
        <mxCell id="e1uM105p1l9Oeo9Ra2l5-51" value="2" style="edgeLabel;html=1;align=center;verticalAlign=middle;resizable=0;points=[];" connectable="0" vertex="1" parent="e1uM105p1l9Oeo9Ra2l5-17">
          <mxGeometry x="-0.2424" y="-2" relative="1" as="geometry">
            <mxPoint y="-1" as="offset" />
          </mxGeometry>
        </mxCell>
        <mxCell id="e1uM105p1l9Oeo9Ra2l5-21" style="edgeStyle=orthogonalEdgeStyle;rounded=0;orthogonalLoop=1;jettySize=auto;html=1;entryX=0.5;entryY=0;entryDx=0;entryDy=0;" edge="1" parent="WIyWlLk6GJQsqaUBKTNV-1" source="WIyWlLk6GJQsqaUBKTNV-3" target="e1uM105p1l9Oeo9Ra2l5-19">
          <mxGeometry relative="1" as="geometry" />
        </mxCell>
        <mxCell id="e1uM105p1l9Oeo9Ra2l5-52" value="1" style="edgeLabel;html=1;align=center;verticalAlign=middle;resizable=0;points=[];" connectable="0" vertex="1" parent="e1uM105p1l9Oeo9Ra2l5-21">
          <mxGeometry x="-0.6171" y="-3" relative="1" as="geometry">
            <mxPoint x="-4" y="1" as="offset" />
          </mxGeometry>
        </mxCell>
        <mxCell id="e1uM105p1l9Oeo9Ra2l5-25" style="edgeStyle=orthogonalEdgeStyle;rounded=0;orthogonalLoop=1;jettySize=auto;html=1;" edge="1" parent="WIyWlLk6GJQsqaUBKTNV-1" source="WIyWlLk6GJQsqaUBKTNV-3">
          <mxGeometry relative="1" as="geometry">
            <mxPoint x="100" y="50" as="targetPoint" />
          </mxGeometry>
        </mxCell>
        <mxCell id="e1uM105p1l9Oeo9Ra2l5-53" value="4,5" style="edgeLabel;html=1;align=center;verticalAlign=middle;resizable=0;points=[];" connectable="0" vertex="1" parent="e1uM105p1l9Oeo9Ra2l5-25">
          <mxGeometry x="-0.0112" y="3" relative="1" as="geometry">
            <mxPoint x="1" y="-1" as="offset" />
          </mxGeometry>
        </mxCell>
        <mxCell id="gnT3_blWkCJAJjCQjO5E-18" style="edgeStyle=orthogonalEdgeStyle;rounded=0;orthogonalLoop=1;jettySize=auto;html=1;" edge="1" parent="WIyWlLk6GJQsqaUBKTNV-1" source="WIyWlLk6GJQsqaUBKTNV-3" target="gnT3_blWkCJAJjCQjO5E-17">
          <mxGeometry relative="1" as="geometry" />
        </mxCell>
        <mxCell id="gnT3_blWkCJAJjCQjO5E-19" value="3" style="edgeLabel;html=1;align=center;verticalAlign=middle;resizable=0;points=[];" connectable="0" vertex="1" parent="gnT3_blWkCJAJjCQjO5E-18">
          <mxGeometry x="-0.1067" y="-1" relative="1" as="geometry">
            <mxPoint as="offset" />
          </mxGeometry>
        </mxCell>
        <mxCell id="WIyWlLk6GJQsqaUBKTNV-3" value="프로그램 실행" style="rounded=1;whiteSpace=wrap;html=1;fontSize=12;glass=0;strokeWidth=1;shadow=0;fillColor=#e1d5e7;strokeColor=#9673a6;" vertex="1" parent="WIyWlLk6GJQsqaUBKTNV-1">
          <mxGeometry x="155" y="30" width="120" height="40" as="geometry" />
        </mxCell>
        <mxCell id="gnT3_blWkCJAJjCQjO5E-14" style="edgeStyle=orthogonalEdgeStyle;rounded=0;orthogonalLoop=1;jettySize=auto;html=1;entryX=0;entryY=0.5;entryDx=0;entryDy=0;" edge="1" parent="WIyWlLk6GJQsqaUBKTNV-1" source="WIyWlLk6GJQsqaUBKTNV-7" target="e1uM105p1l9Oeo9Ra2l5-5">
          <mxGeometry relative="1" as="geometry" />
        </mxCell>
        <mxCell id="WIyWlLk6GJQsqaUBKTNV-7" value="사진 촬영" style="rounded=1;whiteSpace=wrap;html=1;fontSize=12;glass=0;strokeWidth=1;shadow=0;fillColor=#dae8fc;strokeColor=#6c8ebf;" vertex="1" parent="WIyWlLk6GJQsqaUBKTNV-1">
          <mxGeometry x="320" y="120" width="120" height="40" as="geometry" />
        </mxCell>
        <mxCell id="gnT3_blWkCJAJjCQjO5E-7" style="edgeStyle=orthogonalEdgeStyle;rounded=0;orthogonalLoop=1;jettySize=auto;html=1;entryX=1;entryY=0.5;entryDx=0;entryDy=0;" edge="1" parent="WIyWlLk6GJQsqaUBKTNV-1" source="WIyWlLk6GJQsqaUBKTNV-11" target="gnT3_blWkCJAJjCQjO5E-6">
          <mxGeometry relative="1" as="geometry" />
        </mxCell>
        <mxCell id="WIyWlLk6GJQsqaUBKTNV-11" value="객체 정보 라벨 출력" style="rounded=1;whiteSpace=wrap;html=1;fontSize=12;glass=0;strokeWidth=1;shadow=0;fillColor=#dae8fc;strokeColor=#6c8ebf;" vertex="1" parent="WIyWlLk6GJQsqaUBKTNV-1">
          <mxGeometry x="495" y="220" width="120" height="40" as="geometry" />
        </mxCell>
        <mxCell id="WIyWlLk6GJQsqaUBKTNV-12" value="딥러닝 모델을 통한&lt;div&gt;이미지 분석&lt;/div&gt;" style="rounded=1;whiteSpace=wrap;html=1;fontSize=12;glass=0;strokeWidth=1;shadow=0;fillColor=#d5e8d4;strokeColor=#82b366;" vertex="1" parent="WIyWlLk6GJQsqaUBKTNV-1">
          <mxGeometry x="682.5" y="120" width="120" height="40" as="geometry" />
        </mxCell>
        <mxCell id="gnT3_blWkCJAJjCQjO5E-15" style="edgeStyle=orthogonalEdgeStyle;rounded=0;orthogonalLoop=1;jettySize=auto;html=1;entryX=0;entryY=0.5;entryDx=0;entryDy=0;" edge="1" parent="WIyWlLk6GJQsqaUBKTNV-1" source="e1uM105p1l9Oeo9Ra2l5-5" target="WIyWlLk6GJQsqaUBKTNV-12">
          <mxGeometry relative="1" as="geometry" />
        </mxCell>
        <mxCell id="e1uM105p1l9Oeo9Ra2l5-5" value="이미지 확보" style="rhombus;whiteSpace=wrap;html=1;shadow=0;fontFamily=Helvetica;fontSize=12;align=center;strokeWidth=1;spacing=6;spacingTop=-4;fillColor=#ffe6cc;strokeColor=#d79b00;rounded=0;" vertex="1" parent="WIyWlLk6GJQsqaUBKTNV-1">
          <mxGeometry x="480" y="105" width="150" height="70" as="geometry" />
        </mxCell>
        <mxCell id="e1uM105p1l9Oeo9Ra2l5-11" style="edgeStyle=orthogonalEdgeStyle;rounded=0;orthogonalLoop=1;jettySize=auto;html=1;entryX=1;entryY=0.5;entryDx=0;entryDy=0;" edge="1" parent="WIyWlLk6GJQsqaUBKTNV-1" source="e1uM105p1l9Oeo9Ra2l5-8" target="WIyWlLk6GJQsqaUBKTNV-11">
          <mxGeometry relative="1" as="geometry" />
        </mxCell>
        <mxCell id="e1uM105p1l9Oeo9Ra2l5-8" value="분석된 결과를&amp;nbsp;&lt;div&gt;&lt;span style=&quot;background-color: initial;&quot;&gt;저장된&lt;/span&gt;&lt;span style=&quot;background-color: initial;&quot;&gt;&amp;nbsp;정보와 매칭&lt;/span&gt;&lt;/div&gt;" style="shape=cylinder3;whiteSpace=wrap;html=1;boundedLbl=1;backgroundOutline=1;size=15;fillColor=#f5f5f5;fontColor=#333333;strokeColor=#666666;" vertex="1" parent="WIyWlLk6GJQsqaUBKTNV-1">
          <mxGeometry x="672.5" y="200" width="140" height="80" as="geometry" />
        </mxCell>
        <mxCell id="gnT3_blWkCJAJjCQjO5E-12" style="edgeStyle=orthogonalEdgeStyle;rounded=0;orthogonalLoop=1;jettySize=auto;html=1;entryX=0;entryY=0.5;entryDx=0;entryDy=0;" edge="1" parent="WIyWlLk6GJQsqaUBKTNV-1" source="e1uM105p1l9Oeo9Ra2l5-19" target="WIyWlLk6GJQsqaUBKTNV-7">
          <mxGeometry relative="1" as="geometry" />
        </mxCell>
        <mxCell id="e1uM105p1l9Oeo9Ra2l5-19" value="객체 인식 선택" style="rounded=1;whiteSpace=wrap;html=1;fontSize=12;glass=0;strokeWidth=1;shadow=0;fillColor=#dae8fc;strokeColor=#6c8ebf;spacing=0;" vertex="1" parent="WIyWlLk6GJQsqaUBKTNV-1">
          <mxGeometry x="155" y="120" width="120" height="40" as="geometry" />
        </mxCell>
        <mxCell id="e1uM105p1l9Oeo9Ra2l5-47" style="edgeStyle=orthogonalEdgeStyle;rounded=0;orthogonalLoop=1;jettySize=auto;html=1;entryX=0;entryY=0.5;entryDx=0;entryDy=0;" edge="1" parent="WIyWlLk6GJQsqaUBKTNV-1" source="e1uM105p1l9Oeo9Ra2l5-23" target="e1uM105p1l9Oeo9Ra2l5-45">
          <mxGeometry relative="1" as="geometry" />
        </mxCell>
        <mxCell id="e1uM105p1l9Oeo9Ra2l5-23" value="색상 인식 기능" style="rounded=1;whiteSpace=wrap;html=1;fontSize=12;glass=0;strokeWidth=1;shadow=0;fillColor=#dae8fc;strokeColor=#6c8ebf;" vertex="1" parent="WIyWlLk6GJQsqaUBKTNV-1">
          <mxGeometry x="330" y="30" width="90" height="40" as="geometry" />
        </mxCell>
        <mxCell id="gnT3_blWkCJAJjCQjO5E-0" style="edgeStyle=orthogonalEdgeStyle;rounded=0;orthogonalLoop=1;jettySize=auto;html=1;entryX=0.5;entryY=0;entryDx=0;entryDy=0;" edge="1" parent="WIyWlLk6GJQsqaUBKTNV-1" source="e1uM105p1l9Oeo9Ra2l5-30" target="e1uM105p1l9Oeo9Ra2l5-33">
          <mxGeometry relative="1" as="geometry" />
        </mxCell>
        <mxCell id="gnT3_blWkCJAJjCQjO5E-1" style="edgeStyle=orthogonalEdgeStyle;rounded=0;orthogonalLoop=1;jettySize=auto;html=1;" edge="1" parent="WIyWlLk6GJQsqaUBKTNV-1" source="e1uM105p1l9Oeo9Ra2l5-30" target="e1uM105p1l9Oeo9Ra2l5-34">
          <mxGeometry relative="1" as="geometry" />
        </mxCell>
        <mxCell id="e1uM105p1l9Oeo9Ra2l5-30" value="음성 안내/&lt;span style=&quot;background-color: initial;&quot;&gt;음성 설정&amp;nbsp;&lt;/span&gt;&lt;div style=&quot;line-height: 100%;&quot;&gt;&lt;div style=&quot;line-height: 100%;&quot;&gt;기능 선택&lt;/div&gt;&lt;/div&gt;" style="rhombus;whiteSpace=wrap;html=1;shadow=0;fontFamily=Helvetica;fontSize=12;align=center;strokeWidth=1;spacing=6;spacingTop=5;fillColor=#ffe6cc;strokeColor=#d79b00;" vertex="1" parent="WIyWlLk6GJQsqaUBKTNV-1">
          <mxGeometry x="-80" y="15" width="180" height="70" as="geometry" />
        </mxCell>
        <mxCell id="e1uM105p1l9Oeo9Ra2l5-33" value="음성 안내&amp;nbsp;&lt;div&gt;튜토리얼&lt;/div&gt;" style="rounded=1;whiteSpace=wrap;html=1;fontSize=12;glass=0;strokeWidth=1;shadow=0;fillColor=#f8cecc;strokeColor=#b85450;arcSize=50;" vertex="1" parent="WIyWlLk6GJQsqaUBKTNV-1">
          <mxGeometry x="-80" y="220" width="100" height="40" as="geometry" />
        </mxCell>
        <mxCell id="e1uM105p1l9Oeo9Ra2l5-34" value="음성 설정&lt;div&gt;(속도&amp;amp;톤)&lt;/div&gt;" style="rounded=1;whiteSpace=wrap;html=1;fontSize=12;glass=0;strokeWidth=1;shadow=0;fillColor=#f8cecc;strokeColor=#b85450;arcSize=50;" vertex="1" parent="WIyWlLk6GJQsqaUBKTNV-1">
          <mxGeometry x="30" y="220" width="100" height="40" as="geometry" />
        </mxCell>
        <mxCell id="gnT3_blWkCJAJjCQjO5E-11" style="edgeStyle=orthogonalEdgeStyle;rounded=0;orthogonalLoop=1;jettySize=auto;html=1;entryX=0;entryY=0.5;entryDx=0;entryDy=0;" edge="1" parent="WIyWlLk6GJQsqaUBKTNV-1" source="e1uM105p1l9Oeo9Ra2l5-35" target="e1uM105p1l9Oeo9Ra2l5-44">
          <mxGeometry relative="1" as="geometry" />
        </mxCell>
        <mxCell id="e1uM105p1l9Oeo9Ra2l5-35" value="RGB값 파악 후&amp;nbsp;&lt;div&gt;해당 색상정보&lt;/div&gt;&lt;div&gt;&amp;nbsp;텍스트로 변환&lt;/div&gt;" style="rounded=1;whiteSpace=wrap;html=1;fontSize=12;glass=0;strokeWidth=1;shadow=0;fillColor=#d5e8d4;strokeColor=#82b366;align=center;" vertex="1" parent="WIyWlLk6GJQsqaUBKTNV-1">
          <mxGeometry x="580" y="20" width="102.5" height="60" as="geometry" />
        </mxCell>
        <mxCell id="e1uM105p1l9Oeo9Ra2l5-44" value="텍스트를&amp;nbsp;&lt;div&gt;음성으로 출력&lt;/div&gt;" style="rounded=1;whiteSpace=wrap;html=1;fontSize=12;glass=0;strokeWidth=1;shadow=0;fillColor=#f8cecc;strokeColor=#b85450;arcSize=50;" vertex="1" parent="WIyWlLk6GJQsqaUBKTNV-1">
          <mxGeometry x="720" y="30" width="120" height="40" as="geometry" />
        </mxCell>
        <mxCell id="e1uM105p1l9Oeo9Ra2l5-48" style="edgeStyle=orthogonalEdgeStyle;rounded=0;orthogonalLoop=1;jettySize=auto;html=1;entryX=0;entryY=0.5;entryDx=0;entryDy=0;" edge="1" parent="WIyWlLk6GJQsqaUBKTNV-1" source="e1uM105p1l9Oeo9Ra2l5-45" target="e1uM105p1l9Oeo9Ra2l5-35">
          <mxGeometry relative="1" as="geometry" />
        </mxCell>
        <mxCell id="e1uM105p1l9Oeo9Ra2l5-45" value="사진 촬영" style="rounded=1;whiteSpace=wrap;html=1;fontSize=12;glass=0;strokeWidth=1;shadow=0;fillColor=#dae8fc;strokeColor=#6c8ebf;" vertex="1" parent="WIyWlLk6GJQsqaUBKTNV-1">
          <mxGeometry x="460" y="30" width="80" height="40" as="geometry" />
        </mxCell>
        <mxCell id="gnT3_blWkCJAJjCQjO5E-6" value="생성된 라벨을&lt;div&gt;음성으로 출력&lt;/div&gt;" style="rounded=1;whiteSpace=wrap;html=1;fontSize=12;glass=0;strokeWidth=1;shadow=0;fillColor=#f8cecc;strokeColor=#b85450;spacing=0;arcSize=50;" vertex="1" parent="WIyWlLk6GJQsqaUBKTNV-1">
          <mxGeometry x="320" y="220" width="120" height="40" as="geometry" />
        </mxCell>
        <mxCell id="gnT3_blWkCJAJjCQjO5E-16" style="edgeStyle=orthogonalEdgeStyle;rounded=0;orthogonalLoop=1;jettySize=auto;html=1;entryX=0.5;entryY=0;entryDx=0;entryDy=0;entryPerimeter=0;" edge="1" parent="WIyWlLk6GJQsqaUBKTNV-1" source="WIyWlLk6GJQsqaUBKTNV-12" target="e1uM105p1l9Oeo9Ra2l5-8">
          <mxGeometry relative="1" as="geometry" />
        </mxCell>
        <mxCell id="gnT3_blWkCJAJjCQjO5E-24" style="edgeStyle=orthogonalEdgeStyle;rounded=0;orthogonalLoop=1;jettySize=auto;html=1;entryX=0;entryY=0.5;entryDx=0;entryDy=0;" edge="1" parent="WIyWlLk6GJQsqaUBKTNV-1" source="gnT3_blWkCJAJjCQjO5E-17" target="gnT3_blWkCJAJjCQjO5E-23">
          <mxGeometry relative="1" as="geometry" />
        </mxCell>
        <mxCell id="gnT3_blWkCJAJjCQjO5E-17" value="사진 텍스트&lt;div&gt;음성 변환 선택&lt;/div&gt;" style="rounded=1;whiteSpace=wrap;html=1;fontSize=12;glass=0;strokeWidth=1;shadow=0;fillColor=#dae8fc;strokeColor=#6c8ebf;spacing=0;" vertex="1" parent="WIyWlLk6GJQsqaUBKTNV-1">
          <mxGeometry x="155" y="-60" width="120" height="40" as="geometry" />
        </mxCell>
        <mxCell id="gnT3_blWkCJAJjCQjO5E-29" style="edgeStyle=orthogonalEdgeStyle;rounded=0;orthogonalLoop=1;jettySize=auto;html=1;entryX=0;entryY=0.5;entryDx=0;entryDy=0;" edge="1" parent="WIyWlLk6GJQsqaUBKTNV-1" source="gnT3_blWkCJAJjCQjO5E-23" target="gnT3_blWkCJAJjCQjO5E-28">
          <mxGeometry relative="1" as="geometry" />
        </mxCell>
        <mxCell id="gnT3_blWkCJAJjCQjO5E-23" value="사진 촬영" style="rounded=1;whiteSpace=wrap;html=1;fontSize=12;glass=0;strokeWidth=1;shadow=0;fillColor=#dae8fc;strokeColor=#6c8ebf;" vertex="1" parent="WIyWlLk6GJQsqaUBKTNV-1">
          <mxGeometry x="320" y="-60" width="120" height="40" as="geometry" />
        </mxCell>
        <mxCell id="gnT3_blWkCJAJjCQjO5E-31" style="edgeStyle=orthogonalEdgeStyle;rounded=0;orthogonalLoop=1;jettySize=auto;html=1;entryX=0;entryY=0.5;entryDx=0;entryDy=0;" edge="1" parent="WIyWlLk6GJQsqaUBKTNV-1" source="gnT3_blWkCJAJjCQjO5E-28" target="gnT3_blWkCJAJjCQjO5E-30">
          <mxGeometry relative="1" as="geometry" />
        </mxCell>
        <mxCell id="gnT3_blWkCJAJjCQjO5E-28" value="OCR 기술로&amp;nbsp;&lt;div&gt;이미지 내 텍스트 인식&lt;/div&gt;" style="rounded=1;whiteSpace=wrap;html=1;fontSize=12;glass=0;strokeWidth=1;shadow=0;fillColor=#d5e8d4;strokeColor=#82b366;" vertex="1" parent="WIyWlLk6GJQsqaUBKTNV-1">
          <mxGeometry x="495" y="-60" width="125" height="40" as="geometry" />
        </mxCell>
        <mxCell id="gnT3_blWkCJAJjCQjO5E-30" value="텍스트를&amp;nbsp;&lt;div&gt;음성으로 출력&lt;/div&gt;" style="rounded=1;whiteSpace=wrap;html=1;fontSize=12;glass=0;strokeWidth=1;shadow=0;fillColor=#f8cecc;strokeColor=#b85450;arcSize=50;" vertex="1" parent="WIyWlLk6GJQsqaUBKTNV-1">
          <mxGeometry x="672.5" y="-60" width="120" height="40" as="geometry" />
        </mxCell>
      </root>
    </mxGraphModel>
  </diagram>
</mxfile>
